<svg xmlns="http://www.w3.org/2000/svg" width="36.999" height="24.376" viewBox="0 0 36.999 24.376">
  <g id="car" transform="translate(-0.001 -67.324)">
    <path id="Path_50" data-name="Path 50" d="M36.743,74.61a.752.752,0,0,0-.66-.455H32.7a.752.752,0,0,0-.66.455,5.474,5.474,0,0,0-.193.684l-2.258-6.248a2.617,2.617,0,0,0-2.454-1.722H9.864A2.617,2.617,0,0,0,7.41,69.047L5.152,75.295a5.491,5.491,0,0,0-.193-.685.752.752,0,0,0-.66-.455H.917a.752.752,0,0,0-.66.455,3.33,3.33,0,0,0,0,2.564.752.752,0,0,0,.66.455H4.308l-.051.141A1.733,1.733,0,0,0,3.07,79.414V90.866A.833.833,0,0,0,3.9,91.7H8.1a.833.833,0,0,0,.833-.833V86.81H28.071v4.056a.833.833,0,0,0,.833.833H33.1a.833.833,0,0,0,.833-.833V79.414a1.733,1.733,0,0,0-1.187-1.644l-.051-.141h3.39a.752.752,0,0,0,.66-.455A3.331,3.331,0,0,0,36.743,74.61Zm-26.56-4.22H26.815l2.635,7.29H7.548Zm.464,12.426H7.139a1.363,1.363,0,0,1,0-2.725h3.508a1.363,1.363,0,1,1,0,2.725Zm19.214,0H26.353a1.363,1.363,0,1,1,0-2.725h3.508a1.363,1.363,0,1,1,0,2.725Z" transform="translate(0)" fill="#f8f8f8"/>
  </g>
</svg>
