<svg xmlns="http://www.w3.org/2000/svg" width="36.943" height="37.37" viewBox="0 0 36.943 37.37">
  <g id="Group_84" data-name="Group 84" transform="translate(-1854.087 -532.552)">
    <path id="Path_77" data-name="Path 77" d="M-920-8743.143h31.512a1.8,1.8,0,0,0,1.421-1.811c.026-1.567,0-31.559,0-31.559" transform="translate(2776.087 9311.064)" fill="none" stroke="#f8f8f8" stroke-linecap="round" stroke-width="4"/>
    <path id="Rectangle_74" data-name="Rectangle 74" d="M1,0H5.8a1,1,0,0,1,1,1V22a0,0,0,0,1,0,0H0a0,0,0,0,1,0,0V1A1,1,0,0,1,1,0Z" transform="translate(1877 540)" fill="#f8f8f8"/>
    <path id="Rectangle_75" data-name="Rectangle 75" d="M1,0H5.8a1,1,0,0,1,1,1V15.6a0,0,0,0,1,0,0H0a0,0,0,0,1,0,0V1A1,1,0,0,1,1,0Z" transform="translate(1868 546.403)" fill="#f8f8f8"/>
    <path id="Rectangle_76" data-name="Rectangle 76" d="M1,0H5.8a1,1,0,0,1,1,1v9a0,0,0,0,1,0,0H0a0,0,0,0,1,0,0V1A1,1,0,0,1,1,0Z" transform="translate(1858 552)" fill="#f8f8f8"/>
  </g>
</svg>
