<svg xmlns="http://www.w3.org/2000/svg" width="37" height="20.034" viewBox="0 0 37 20.034">
  <g id="crash" transform="translate(0 -140.311)">
    <g id="Group_69" data-name="Group 69" transform="translate(0 140.311)">
      <path id="Path_51" data-name="Path 51" d="M15.719,144.366a.168.168,0,0,1,.042-.133l.369-.6a.335.335,0,0,1,.278-.181,1.4,1.4,0,0,1,.411.181l4.165,3.156-4.855-2.013C15.852,144.686,15.719,144.548,15.719,144.366Zm2.056-3.664a.41.41,0,0,0-.278.133l-.6.6a.411.411,0,0,0-.133.32.625.625,0,0,0,.369.5l5.127,3.936-3.942-5.127C18.095,140.835,17.962,140.7,17.775,140.7ZM37,149.765v7.69H28.675v1.838a.524.524,0,0,1-.544.544H25.2a.524.524,0,0,1-.544-.544v-7.327A4,4,0,0,1,25.108,150l3.567-7.467a3.073,3.073,0,0,1,2.521-1.6h5.768v2.376H32.3a1.817,1.817,0,0,0-1.965,1.282l-2.424,5.175H37Zm-6.771,3.658c0-.967-.78-.925-1.79-.925s-1.79-.042-1.79.925.78.853,1.79.853C29.407,154.276,30.229,154.39,30.229,153.423Zm-8.93-1.554V155.9c0,1.01-.689,1.378-1.511,1.378H16.354a3.26,3.26,0,0,1-3.253,3.065,3.348,3.348,0,0,1-3.3-3.065H0V141.845H7.467a2.79,2.79,0,0,1,2.376,1.511l3.2,4.988,6.269,1.421A2.084,2.084,0,0,1,21.3,151.869Zm-10.846-3.476L8.4,144.959a2.149,2.149,0,0,0-1.88-1.191h-4.4v4.625Zm4.444,8.561a1.766,1.766,0,0,0-3.531,0,1.817,1.817,0,0,0,1.79,1.79A1.78,1.78,0,0,0,14.9,156.953Zm6.765-16.62-.689.181a.3.3,0,0,0-.23.23.505.505,0,0,0,.091.411l1.965,4.855-.683-5.175C22.073,140.424,21.9,140.243,21.662,140.334Z" transform="translate(0 -140.311)" fill="#f8f8f8"/>
    </g>
  </g>
</svg>
