<svg id="information-button" xmlns="http://www.w3.org/2000/svg" width="33.593" height="33.593" viewBox="0 0 33.593 33.593">
  <path id="Path_25" data-name="Path 25" d="M16.8,0a16.8,16.8,0,1,0,16.8,16.8A16.8,16.8,0,0,0,16.8,0Zm3.5,26.031q-1.3.512-2.069.779a5.458,5.458,0,0,1-1.794.269,3.576,3.576,0,0,1-2.441-.766,2.473,2.473,0,0,1-.869-1.944,7.061,7.061,0,0,1,.064-.937c.044-.319.114-.677.209-1.079l1.082-3.822c.1-.367.178-.715.243-1.039a4.609,4.609,0,0,0,.1-.9,1.386,1.386,0,0,0-.3-1.02,1.712,1.712,0,0,0-1.156-.286,3.034,3.034,0,0,0-.86.128c-.291.09-.545.171-.752.25l.286-1.177q1.062-.433,2.033-.741a6.007,6.007,0,0,1,1.834-.31,3.51,3.51,0,0,1,2.406.754,2.5,2.5,0,0,1,.845,1.957q0,.25-.058.877a5.871,5.871,0,0,1-.216,1.153L17.8,21.987c-.088.306-.166.656-.237,1.047a5.534,5.534,0,0,0-.1.89,1.278,1.278,0,0,0,.34,1.035,1.9,1.9,0,0,0,1.176.276,3.411,3.411,0,0,0,.89-.138,5.061,5.061,0,0,0,.719-.242ZM20.1,10.563a2.569,2.569,0,0,1-1.813.7,2.6,2.6,0,0,1-1.82-.7,2.233,2.233,0,0,1-.758-1.7,2.256,2.256,0,0,1,.758-1.7,2.577,2.577,0,0,1,1.82-.707,2.548,2.548,0,0,1,1.813.707,2.291,2.291,0,0,1,0,3.4Z" fill="#f8f8f8"/>
</svg>
