<svg id="map1" xmlns="http://www.w3.org/2000/svg" width="37" height="37" viewBox="0 0 37 37">
  <g id="Group_98" data-name="Group 98" transform="translate(20.813)">
    <g id="Group_97" data-name="Group 97">
      <path id="Path_90" data-name="Path 90" d="M296.094,0A8.1,8.1,0,0,0,288,8.094c0,4.153,6.493,11.509,7.233,12.335a1.156,1.156,0,0,0,1.72,0c.74-.826,7.234-8.182,7.234-12.335A8.1,8.1,0,0,0,296.094,0Zm0,11.563a3.469,3.469,0,1,1,3.469-3.469A3.47,3.47,0,0,1,296.094,11.563Z" transform="translate(-288)" fill="#f8f8f8"/>
    </g>
  </g>
  <g id="Group_100" data-name="Group 100" transform="translate(0 9.25)">
    <g id="Group_99" data-name="Group 99">
      <path id="Path_91" data-name="Path 91" d="M.726,132.334A1.16,1.16,0,0,0,0,133.409v21.185a1.156,1.156,0,0,0,1.586,1.073l9.976-3.991V128Z" transform="translate(0 -128)" fill="#f8f8f8"/>
    </g>
  </g>
  <g id="Group_102" data-name="Group 102" transform="translate(25.438 14.594)">
    <g id="Group_101" data-name="Group 101">
      <path id="Path_92" data-name="Path 92" d="M358.049,209.331a3.467,3.467,0,0,1-5.161,0c-.236-.261-.539-.606-.888-1.015v16.042l10.836-4.334a1.153,1.153,0,0,0,.726-1.073v-17A50.247,50.247,0,0,1,358.049,209.331Z" transform="translate(-352 -201.952)" fill="#f8f8f8"/>
    </g>
  </g>
  <g id="Group_104" data-name="Group 104" transform="translate(13.875 9.25)">
    <g id="Group_103" data-name="Group 103">
      <path id="Path_93" data-name="Path 93" d="M197.353,130.141,192,128v23.675l9.25,3.7V136.806A30.105,30.105,0,0,1,197.353,130.141Z" transform="translate(-192 -128)" fill="#f8f8f8"/>
    </g>
  </g>
</svg>
