<svg xmlns="http://www.w3.org/2000/svg" width="37" height="25.716" viewBox="0 0 37 25.716">
  <g id="overturned-car" transform="translate(-3.702 -37.435)">
    <g id="Group_67" data-name="Group 67" transform="translate(3.702 37.435)">
      <path id="Path_43" data-name="Path 43" d="M6.838,20.043l-.1.1a1.127,1.127,0,0,0,0,1.592l.446.446a.937.937,0,0,0,.659.291.9.9,0,0,0,.777-.485l.548-.964,2.7,1.127a2.082,2.082,0,0,0,.8.15,2.4,2.4,0,0,0,1.652-.633l7.346-7.347a2.423,2.423,0,0,0,.483-2.448L21.02,9.175l.952-.541A.876.876,0,0,0,22.167,7.2l-.446-.446a1.128,1.128,0,0,0-1.592,0l-.086.086L19.861,6.4a8.444,8.444,0,0,0-1.525-2.274l-3.8-3.8a1.128,1.128,0,0,0-1.592,0l-1.04,1.04a1.128,1.128,0,0,0,0,1.592l.949.949L3.91,12.854l-.949-.949a1.128,1.128,0,0,0-1.592,0l-1.04,1.04a1.127,1.127,0,0,0,0,1.592l3.8,3.8A8.443,8.443,0,0,0,6.4,19.861ZM19.225,8.52l1.7,4.08a1.456,1.456,0,0,1-.29,1.468L14.069,20.64a1.456,1.456,0,0,1-1.468.29l-4.08-1.705a.562.562,0,0,1-.194-.984L18.24,8.326A.562.562,0,0,1,19.225,8.52ZM12.915,6.876,15.171,4.62a.452.452,0,0,1,.637,0L16.89,5.7a.452.452,0,0,1,0,.637L14.635,8.6A.452.452,0,0,1,14,8.6L12.915,7.513A.452.452,0,0,1,12.915,6.876ZM5.725,16.869,4.642,15.786a.452.452,0,0,1,0-.637L6.9,12.894a.452.452,0,0,1,.637,0l1.083,1.082a.452.452,0,0,1,0,.637L6.362,16.869A.452.452,0,0,1,5.725,16.869Z" transform="matrix(1, -0.017, 0.017, 1, 0, 0.392)" fill="#f8f8f8"/>
      <path id="Path_44" data-name="Path 44" d="M184.255,129.612a.61.61,0,0,0,.141-.017l3.2-.76a.608.608,0,1,0-.281-1.183l-3.2.76a.608.608,0,0,0,.14,1.2Z" transform="translate(-159.433 -115.813)" fill="#f8f8f8"/>
      <path id="Path_45" data-name="Path 45" d="M181.073,148.873l2.879,1.177a.608.608,0,1,0,.46-1.125l-2.879-1.177a.608.608,0,1,0-.46,1.125Z" transform="translate(-156.866 -133.255)" fill="#f8f8f8"/>
      <path id="Path_46" data-name="Path 46" d="M174.524,162.931a.608.608,0,0,0,1.034-.639l-1.59-2.575a.608.608,0,0,0-1.034.639Z" transform="translate(-150.042 -143.448)" fill="#f8f8f8"/>
      <path id="Path_47" data-name="Path 47" d="M67.791,218.363H35.162c-.741,0-1.341.29-1.341.647s.6.647,1.341.647H67.791c.741,0,1.341-.29,1.341-.647S68.532,218.363,67.791,218.363Z" transform="translate(-32.133 -193.941)" fill="#f8f8f8"/>
    </g>
  </g>
</svg>
