<svg xmlns="http://www.w3.org/2000/svg" width="37" height="24.33" viewBox="0 0 37 24.33">
  <g id="speedometer" transform="translate(0 -162.661)">
    <g id="Group_70" data-name="Group 70" transform="translate(0 162.661)">
      <path id="Path_57" data-name="Path 57" d="M755.729,585.592c0-.08-.006-.161-.008-.242s-.006-.162-.009-.244l0-.061v-.123l-.008-.1-.032-.408-.008-.1-.012-.134-.025-.266-.026-.265-.013-.132-.016-.121c-.044-.321-.084-.636-.141-.94-.027-.152-.051-.3-.079-.446l-.089-.425c-.055-.276-.123-.535-.181-.773l-.043-.175-.046-.166-.087-.306c-.028-.1-.052-.186-.077-.268l-.072-.226-.081-.251a.192.192,0,0,0-.235-.125l-6.255,1.783a.192.192,0,0,0-.136.22l.023.125.029.156c.01.057.018.119.028.185l.032.21c.005.037.012.074.017.113l.014.12c.017.163.043.338.055.525l.024.287c.006.1.009.2.014.3.014.2.011.414.015.628v.079l0,.07,0,.141,0,.141,0,.07,0,.1-.017.409,0,.1v.016c0,.015,0-.121,0-.062v.005l0,.02,0,.04-.014.16-.014.158-.019.156c-.013.1-.022.205-.038.3l-.042.294-.049.279c-.014.091-.033.178-.05.263s-.032.166-.05.244l-.052.223-.024.1-.023.083-.013.048h7.651a.191.191,0,0,0,.192-.183.017.017,0,0,0,0,0q.01-.214.02-.438t.009-.457c0-.155,0-.313,0-.472Q755.73,585.713,755.729,585.592Z" transform="translate(-718.734 -563.055)" fill="#f8f8f8"/>
      <path id="Path_58" data-name="Path 58" d="M660.5,339.179a.192.192,0,0,0,.1-.26l-.073-.155-.087-.183-.132-.269-.152-.305c-.027-.056-.054-.1-.081-.154l-.085-.157c-.058-.107-.118-.219-.182-.333l-.2-.351-.107-.182-.115-.184-.238-.378c-.17-.251-.34-.514-.53-.77l-.14-.194-.07-.1-.073-.1-.3-.382c-.1-.126-.2-.249-.306-.373-.051-.061-.1-.124-.154-.184l-.157-.179-.156-.177c-.052-.059-.1-.117-.157-.173l-.314-.334c-.1-.109-.21-.212-.312-.315s-.2-.2-.3-.3l-.293-.274c-.094-.089-.19-.169-.28-.249l-.259-.227-.24-.2-.211-.173c-.065-.053-.128-.1-.183-.142l-.2-.155a.192.192,0,0,0-.265.03l-3.357,4.064a.192.192,0,0,0,.013.259l.1.1c.035.035.075.072.116.116l.133.14.151.159.161.182c.056.064.116.127.174.2l.181.217c.063.073.123.153.186.233s.128.16.19.246l.189.259c.033.043.063.088.094.134l.093.137.094.137c.031.046.06.094.09.141.059.095.121.188.179.283l.17.289.042.072.04.073.079.145c.109.19.2.387.3.571l.13.279.063.134.057.134.11.255.095.241.044.113c.014.036.031.075.04.105l.061.179.055.156.061.183.054.163a.192.192,0,0,0,.254.117Z" transform="translate(-625.497 -324.673)" fill="#f8f8f8"/>
      <path id="Path_59" data-name="Path 59" d="M452.1,239.275l.168.023.2.034.224.038c.068.011.139.028.213.043l2.119-4.334-.311-.049c-.07-.01-.139-.022-.207-.031l-.2-.025-.389-.046-.364-.031c-.117-.009-.228-.021-.335-.026l-.3-.015-.266-.013-.226,0-.242,0a.192.192,0,0,0-.194.183l-.193,4.034a.192.192,0,0,0,.165.2Z" transform="translate(-434.196 -232.027)" fill="#f8f8f8"/>
      <path id="Path_60" data-name="Path 60" d="M596.313,271.534l.162.118.142.1.076.056.076.056.138.1a.192.192,0,0,0,.275-.049l2.766-4.214a.192.192,0,0,0-.065-.272l-.149-.085-.082-.047-.1-.055-.255-.14-.29-.158-.306-.153c-.107-.052-.216-.11-.333-.163l-.361-.166c-.123-.058-.253-.111-.385-.166s-.266-.113-.4-.166l-.107-.04-1.193,5.18c.066.041.128.085.189.125Z" transform="translate(-572.71 -262.066)" fill="#f8f8f8"/>
      <path id="Path_61" data-name="Path 61" d="M191.5,242.1c.053-.007.106-.016.158-.021l.155-.016.3-.031.278-.019.131-.009c.042,0,.085-.006.121-.007l.213-.006.187-.006h.367a.192.192,0,0,0,.19-.2l-.249-3.8a.192.192,0,0,0-.215-.178l-.17.021-.2.025-.276.041-.313.048c-.056.008-.108.019-.163.029l-.167.032-.353.068-.376.086-.2.045c-.066.015-.132.034-.2.052l-.409.109-.419.126c-.071.022-.142.042-.213.066l-.213.073-.214.073c-.072.024-.143.049-.214.077l-.427.163c-.142.056-.281.117-.421.175-.07.03-.14.058-.209.089l-.2.094-.2.094c-.067.031-.134.062-.2.1l-.386.2c-.127.064-.248.134-.368.2s-.237.129-.348.2l-.325.193c-.105.061-.2.128-.3.188l-.273.175-.241.165-.211.145c-.065.045-.123.089-.176.128l-.183.135a.192.192,0,0,0-.044.262l1.578,2.32a.192.192,0,0,0,.253.059l.141-.08c.047-.026.1-.057.156-.087l.186-.1.211-.11.238-.114c.083-.039.168-.083.259-.122l.28-.123c.1-.044.2-.082.3-.123s.205-.085.313-.123l.326-.118c.055-.021.111-.038.167-.056l.17-.055.171-.055.173-.05c.116-.032.231-.068.348-.1l.35-.087c.058-.015.116-.027.175-.039l.174-.037.173-.037c.057-.011.115-.02.172-.031l.337-.058Z" transform="translate(-177.309 -234.875)" fill="#f8f8f8"/>
      <path id="Path_62" data-name="Path 62" d="M25.894,360.8l-.125.176-.125.178c-.042.059-.081.121-.121.182-.08.122-.162.243-.24.367l-.229.373-.057.093-.054.094-.107.188c-.146.247-.272.5-.4.741l-.176.361-.085.175-.078.173-.149.331-.13.313c-.041.1-.082.2-.117.288l-.1.263-.086.231-.068.2-.068.2a.192.192,0,0,0,.113.24l1.469.563a.192.192,0,0,0,.242-.1l.076-.16.081-.168.1-.195.115-.221c.041-.078.087-.157.134-.241l.147-.261.166-.274.086-.143.093-.144.191-.3c.138-.2.273-.4.426-.6l.112-.151.056-.076.059-.074.236-.3c.08-.1.164-.193.245-.29.041-.048.08-.1.122-.143l.126-.139.124-.138c.041-.046.082-.091.125-.134l.25-.259c.082-.085.167-.163.248-.243s.16-.157.241-.228l.232-.211c.074-.069.151-.13.222-.191l.2-.174.181-.143.158-.126c.022-.019.053-.041.078-.06l.075-.057.137-.1a.192.192,0,0,0,.03-.278l-1.672-1.959a.192.192,0,0,0-.279-.014l-.124.119-.068.065c-.024.023-.047.045-.077.076l-.186.187-.21.213-.216.234c-.074.082-.155.165-.232.256l-.242.28c-.084.095-.165.2-.249.3s-.17.208-.254.318l-.253.335C25.976,360.681,25.935,360.739,25.894,360.8Z" transform="translate(-22.459 -350.572)" fill="#f8f8f8"/>
      <path id="Path_63" data-name="Path 63" d="M.4,597.782l-.034.168-.039.194c-.014.072-.028.157-.043.244l-.048.28c-.008.049-.018.1-.025.151l-.021.156c-.027.212-.064.441-.084.685l-.037.374c-.01.128-.017.259-.026.392-.021.265-.025.54-.034.819l0,.1v.316q0,.106,0,.211v.106l0,.106.017.422,0,.105v.034l0,.025,0,.051.015.2.015.2.02.207.02.2.01.1.012.1.049.385.056.367c.017.119.039.234.06.346l0,.027a.192.192,0,0,0,.189.157H1a.192.192,0,0,0,.192-.2q0-.044-.006-.089c-.006-.107-.014-.218-.017-.332l-.011-.351q0-.179,0-.366v-.094q0-.046,0-.093l0-.187,0-.19.009-.2.009-.2,0-.051v-.029c0-.008,0,.007,0,0v-.018l.008-.1.031-.394.008-.1.011-.1.023-.2.022-.195.011-.1.014-.1c.039-.256.073-.508.122-.749.023-.121.044-.24.067-.355l.075-.338c.045-.22.1-.424.152-.613l.036-.139c.012-.044.026-.087.038-.128l.07-.236c.023-.075.041-.141.063-.208l.062-.188.054-.163a.192.192,0,0,0-.133-.246l-1.3-.346A.192.192,0,0,0,.4,597.782Z" transform="translate(0 -580.687)" fill="#f8f8f8"/>
      <path id="Path_64" data-name="Path 64" d="M345.969,186.481a2.985,2.985,0,0,0,4-1.371,3.134,3.134,0,0,0,.227-.641l3.021-13.114,1.151-4.994.713-3.094a.49.49,0,0,0-.491-.605.47.47,0,0,0-.432.278l-1.451,2.967-2.14,4.377-5.966,12.2A2.987,2.987,0,0,0,345.969,186.481Zm1.421-4.223a1.464,1.464,0,1,1-1.464,1.464A1.464,1.464,0,0,1,347.39,182.258Z" transform="translate(-330.884 -162.661)" fill="#f8f8f8"/>
    </g>
  </g>
</svg>
